<?xml version="1.0" encoding="UTF-8" standalone="no"?>
<!-- Generator: Adobe Illustrator 19.0.0, SVG Export Plug-In . SVG Version: 6.00 Build 0)  -->

<svg
   xmlns:dc="http://purl.org/dc/elements/1.1/"
   xmlns:cc="http://creativecommons.org/ns#"
   xmlns:rdf="http://www.w3.org/1999/02/22-rdf-syntax-ns#"
   xmlns:svg="http://www.w3.org/2000/svg"
   xmlns="http://www.w3.org/2000/svg"
   xmlns:sodipodi="http://sodipodi.sourceforge.net/DTD/sodipodi-0.dtd"
   xmlns:inkscape="http://www.inkscape.org/namespaces/inkscape"
   version="1.1"
   id="Layer_1"
   x="0px"
   y="0px"
   viewBox="0 0 369 512"
   xml:space="preserve"
   inkscape:version="0.91 r13725"
   sodipodi:docname="karo-7.svg"
   width="369"
   height="512"><metadata
     id="metadata4226"><rdf:RDF><cc:Work
         rdf:about=""><dc:format>image/svg+xml</dc:format><dc:type
           rdf:resource="http://purl.org/dc/dcmitype/StillImage" /><dc:title></dc:title></cc:Work></rdf:RDF></metadata><defs
     id="defs4224" /><sodipodi:namedview
     pagecolor="#ffffff"
     bordercolor="#666666"
     borderopacity="1"
     objecttolerance="10"
     gridtolerance="10"
     guidetolerance="10"
     inkscape:pageopacity="0"
     inkscape:pageshadow="2"
     inkscape:window-width="640"
     inkscape:window-height="480"
     id="namedview4222"
     showgrid="false"
     inkscape:zoom="1.5410156"
     inkscape:cx="160.93283"
     inkscape:cy="256"
     inkscape:current-layer="Layer_1" /><g
     id="g4180"
     transform="translate(-70.621,0)"><path
       style="fill:#e6eef4"
       d="M 423.724,0 88.276,0 C 78.522,0 70.621,7.901 70.621,17.655 l 0,476.69 c 0,9.754 7.901,17.655 17.655,17.655 l 335.448,0 c 9.754,0 17.655,-7.901 17.655,-17.655 l 0,-476.69 C 441.379,7.901 433.479,0 423.724,0"
       id="path4182"
       inkscape:connector-curvature="0" /><g
       id="g4184"><polygon
         style="fill:#d71e00"
         points="256,176.552 150.069,308.966 256,441.379 361.931,308.966 "
         id="polygon4186" /><path
         style="fill:#d71e00"
         d="m 132.414,26.483 c -19.503,0 -35.31,15.808 -35.31,35.31 0,19.502 15.808,35.31 35.31,35.31 19.502,0 35.31,-15.808 35.31,-35.31 0,-19.502 -15.808,-35.31 -35.31,-35.31 z m 0,52.965 c -9.752,0 -17.655,-7.903 -17.655,-17.655 0,-9.752 7.903,-17.655 17.655,-17.655 9.752,0 17.655,7.903 17.655,17.655 0,9.752 -7.903,17.655 -17.655,17.655 z"
         id="path4188"
         inkscape:connector-curvature="0" /><path
         style="fill:#d71e00"
         d="m 132.414,79.448 c -19.503,0 -35.31,15.808 -35.31,35.31 0,19.502 15.808,35.31 35.31,35.31 19.502,0 35.31,-15.808 35.31,-35.31 0,-19.502 -15.808,-35.31 -35.31,-35.31 z m 0,52.966 c -9.752,0 -17.655,-7.903 -17.655,-17.655 0,-9.752 7.903,-17.655 17.655,-17.655 9.752,0 17.655,7.903 17.655,17.655 0,9.752 -7.903,17.655 -17.655,17.655 z"
         id="path4190"
         inkscape:connector-curvature="0" /></g></g><g
     id="g4192" /><g
     id="g4194" /><g
     id="g4196" /><g
     id="g4198" /><g
     id="g4200" /><g
     id="g4202" /><g
     id="g4204" /><g
     id="g4206" /><g
     id="g4208" /><g
     id="g4210" /><g
     id="g4212" /><g
     id="g4214" /><g
     id="g4216" /><g
     id="g4218" /><g
     id="g4220" /></svg>