<?xml version="1.0" encoding="UTF-8" standalone="no"?>
<!-- Generator: Adobe Illustrator 19.0.0, SVG Export Plug-In . SVG Version: 6.00 Build 0)  -->

<svg
   xmlns:dc="http://purl.org/dc/elements/1.1/"
   xmlns:cc="http://creativecommons.org/ns#"
   xmlns:rdf="http://www.w3.org/1999/02/22-rdf-syntax-ns#"
   xmlns:svg="http://www.w3.org/2000/svg"
   xmlns="http://www.w3.org/2000/svg"
   xmlns:sodipodi="http://sodipodi.sourceforge.net/DTD/sodipodi-0.dtd"
   xmlns:inkscape="http://www.inkscape.org/namespaces/inkscape"
   version="1.1"
   id="Layer_1"
   x="0px"
   y="0px"
   viewBox="0 0 369 512"
   xml:space="preserve"
   inkscape:version="0.91 r13725"
   sodipodi:docname="karo-3.svg"
   width="369"
   height="512"><metadata
     id="metadata5406"><rdf:RDF><cc:Work
         rdf:about=""><dc:format>image/svg+xml</dc:format><dc:type
           rdf:resource="http://purl.org/dc/dcmitype/StillImage" /><dc:title></dc:title></cc:Work></rdf:RDF></metadata><defs
     id="defs5404" /><sodipodi:namedview
     pagecolor="#ffffff"
     bordercolor="#666666"
     borderopacity="1"
     objecttolerance="10"
     gridtolerance="10"
     guidetolerance="10"
     inkscape:pageopacity="0"
     inkscape:pageshadow="2"
     inkscape:window-width="640"
     inkscape:window-height="480"
     id="namedview5402"
     showgrid="false"
     inkscape:zoom="1.5410156"
     inkscape:cx="160.93283"
     inkscape:cy="256"
     inkscape:current-layer="Layer_1" /><g
     id="g5356"
     transform="translate(-70.621,0)"><path
       style="fill:#e6eef4"
       d="M 423.724,0 88.276,0 C 78.522,0 70.621,7.901 70.621,17.655 l 0,476.69 c 0,9.754 7.901,17.655 17.655,17.655 l 335.448,0 c 9.754,0 17.655,-7.901 17.655,-17.655 l 0,-476.69 C 441.379,7.901 433.479,0 423.724,0"
       id="path5358"
       inkscape:connector-curvature="0" /><g
       id="g5360"><polygon
         style="fill:#d71e00"
         points="256,176.552 150.069,308.966 256,441.379 361.931,308.966 "
         id="polygon5362" /><path
         style="fill:#d71e00"
         d="m 98.869,100.634 c -2.925,3.9 -2.135,9.433 1.766,12.359 3.9,2.925 9.433,2.135 12.359,-1.766 L 165.96,40.606 c 2.925,-3.9 2.135,-9.433 -1.766,-12.359 -3.9,-2.925 -9.433,-2.135 -12.359,1.766 l -52.966,70.621 z"
         id="path5364"
         inkscape:connector-curvature="0" /><path
         style="fill:#d71e00"
         d="m 150.069,141.241 c 0,4.875 3.952,8.828 8.828,8.828 4.876,0 8.828,-3.952 8.828,-8.828 l 0,-105.931 c 0,-4.875 -3.952,-8.828 -8.828,-8.828 -4.876,0 -8.828,3.952 -8.828,8.828 l 0,105.931 z"
         id="path5366"
         inkscape:connector-curvature="0" /><path
         style="fill:#d71e00"
         d="m 105.931,97.103 c -4.875,0 -8.828,3.952 -8.828,8.828 0,4.875 3.952,8.828 8.828,8.828 l 70.621,0 c 4.875,0 8.828,-3.952 8.828,-8.828 0,-4.875 -3.952,-8.828 -8.828,-8.828 l -70.621,0 z"
         id="path5368"
         inkscape:connector-curvature="0" /><path
         style="fill:#d71e00"
         d="m 176.552,150.069 c 4.875,0 8.828,-3.952 8.828,-8.828 0,-4.876 -3.952,-8.828 -8.828,-8.828 l -35.31,0 c -4.875,0 -8.828,3.952 -8.828,8.828 0,4.876 3.952,8.828 8.828,8.828 l 35.31,0 z"
         id="path5370"
         inkscape:connector-curvature="0" /></g></g><g
     id="g5372" /><g
     id="g5374" /><g
     id="g5376" /><g
     id="g5378" /><g
     id="g5380" /><g
     id="g5382" /><g
     id="g5384" /><g
     id="g5386" /><g
     id="g5388" /><g
     id="g5390" /><g
     id="g5392" /><g
     id="g5394" /><g
     id="g5396" /><g
     id="g5398" /><g
     id="g5400" /></svg>