<?xml version="1.0" encoding="UTF-8" standalone="no"?>
<!-- Generator: Adobe Illustrator 19.0.0, SVG Export Plug-In . SVG Version: 6.00 Build 0)  -->

<svg
   xmlns:dc="http://purl.org/dc/elements/1.1/"
   xmlns:cc="http://creativecommons.org/ns#"
   xmlns:rdf="http://www.w3.org/1999/02/22-rdf-syntax-ns#"
   xmlns:svg="http://www.w3.org/2000/svg"
   xmlns="http://www.w3.org/2000/svg"
   xmlns:sodipodi="http://sodipodi.sourceforge.net/DTD/sodipodi-0.dtd"
   xmlns:inkscape="http://www.inkscape.org/namespaces/inkscape"
   version="1.1"
   id="Layer_1"
   x="0px"
   y="0px"
   viewBox="0 0 369 512"
   xml:space="preserve"
   inkscape:version="0.91 r13725"
   sodipodi:docname="karo-0.svg"
   width="369"
   height="512"><metadata
     id="metadata49"><rdf:RDF><cc:Work
         rdf:about=""><dc:format>image/svg+xml</dc:format><dc:type
           rdf:resource="http://purl.org/dc/dcmitype/StillImage" /><dc:title></dc:title></cc:Work></rdf:RDF></metadata><defs
     id="defs47" /><sodipodi:namedview
     pagecolor="#ffffff"
     bordercolor="#666666"
     borderopacity="1"
     objecttolerance="10"
     gridtolerance="10"
     guidetolerance="10"
     inkscape:pageopacity="0"
     inkscape:pageshadow="2"
     inkscape:window-width="640"
     inkscape:window-height="480"
     id="namedview45"
     showgrid="false"
     inkscape:zoom="1.5332031"
     inkscape:cx="160.44841"
     inkscape:cy="254.69554"
     inkscape:current-layer="Layer_1" /><g
     id="g3"
     transform="translate(-70.621,0)"><path
       style="fill:#e6eef4"
       d="M 423.724,0 88.276,0 C 78.522,0 70.621,7.901 70.621,17.655 l 0,476.69 c 0,9.754 7.901,17.655 17.655,17.655 l 335.448,0 c 9.754,0 17.655,-7.901 17.655,-17.655 l 0,-476.69 C 441.379,7.901 433.479,0 423.724,0"
       id="path5"
       inkscape:connector-curvature="0" /><g
       id="g7"><polygon
         style="fill:#d71e00"
         points="256,176.552 150.069,308.966 256,441.379 361.931,308.966 "
         id="polygon9" /><path
         style="fill:#d71e00"
         d="m 149.616,32.519 c -2.683,-8.048 -14.066,-8.048 -16.749,0 L 97.556,138.45 c -1.542,4.625 0.958,9.624 5.583,11.166 4.625,1.542 9.624,-0.958 11.166,-5.583 l 35.31,-105.931 -16.749,0 35.31,105.931 c 1.542,4.625 6.541,7.125 11.166,5.583 4.625,-1.542 7.125,-6.541 5.583,-11.166 L 149.616,32.519 Z"
         id="path11"
         inkscape:connector-curvature="0" /><path
         style="fill:#d71e00"
         d="m 158.897,114.759 c 4.875,0 8.828,-3.952 8.828,-8.828 0,-4.875 -3.952,-8.828 -8.828,-8.828 l -35.31,0 c -4.875,0 -8.828,3.952 -8.828,8.828 0,4.875 3.952,8.828 8.828,8.828 l 35.31,0 z"
         id="path13"
         inkscape:connector-curvature="0" /></g></g><g
     id="g15" /><g
     id="g17" /><g
     id="g19" /><g
     id="g21" /><g
     id="g23" /><g
     id="g25" /><g
     id="g27" /><g
     id="g29" /><g
     id="g31" /><g
     id="g33" /><g
     id="g35" /><g
     id="g37" /><g
     id="g39" /><g
     id="g41" /><g
     id="g43" /></svg>