<?xml version="1.0" encoding="UTF-8" standalone="no"?>
<!-- Generator: Adobe Illustrator 19.0.0, SVG Export Plug-In . SVG Version: 6.00 Build 0)  -->

<svg
   xmlns:dc="http://purl.org/dc/elements/1.1/"
   xmlns:cc="http://creativecommons.org/ns#"
   xmlns:rdf="http://www.w3.org/1999/02/22-rdf-syntax-ns#"
   xmlns:svg="http://www.w3.org/2000/svg"
   xmlns="http://www.w3.org/2000/svg"
   xmlns:sodipodi="http://sodipodi.sourceforge.net/DTD/sodipodi-0.dtd"
   xmlns:inkscape="http://www.inkscape.org/namespaces/inkscape"
   version="1.1"
   id="Layer_1"
   x="0px"
   y="0px"
   viewBox="0 0 369 512"
   xml:space="preserve"
   inkscape:version="0.91 r13725"
   sodipodi:docname="karo-2.svg"
   width="369"
   height="512"><metadata
     id="metadata4813"><rdf:RDF><cc:Work
         rdf:about=""><dc:format>image/svg+xml</dc:format><dc:type
           rdf:resource="http://purl.org/dc/dcmitype/StillImage" /><dc:title></dc:title></cc:Work></rdf:RDF></metadata><defs
     id="defs4811" /><sodipodi:namedview
     pagecolor="#ffffff"
     bordercolor="#666666"
     borderopacity="1"
     objecttolerance="10"
     gridtolerance="10"
     guidetolerance="10"
     inkscape:pageopacity="0"
     inkscape:pageshadow="2"
     inkscape:window-width="640"
     inkscape:window-height="480"
     id="namedview4809"
     showgrid="false"
     inkscape:zoom="1.5410156"
     inkscape:cx="160.93283"
     inkscape:cy="256"
     inkscape:current-layer="Layer_1" /><g
     id="g4767"
     transform="translate(-70.621,0)"><path
       style="fill:#e6eef4"
       d="M 423.724,0 88.276,0 C 78.522,0 70.621,7.901 70.621,17.655 l 0,476.69 c 0,9.754 7.901,17.655 17.655,17.655 l 335.448,0 c 9.754,0 17.655,-7.901 17.655,-17.655 l 0,-476.69 C 441.379,7.901 433.479,0 423.724,0"
       id="path4769"
       inkscape:connector-curvature="0" /><g
       id="g4771"><polygon
         style="fill:#d71e00"
         points="256,176.552 150.069,308.966 256,441.379 361.931,308.966 "
         id="polygon4773" /><path
         style="fill:#d71e00"
         d="m 123.587,97.103 c 19.503,0 35.31,-15.808 35.31,-35.31 0,-19.502 -15.808,-35.31 -35.31,-35.31 -4.058,0 -8.024,0.686 -11.778,2.017 -5.252,1.849 -9.826,5.02 -14.202,9.396 -3.447,3.447 -3.447,9.037 0,12.484 3.447,3.447 9.037,3.447 12.484,0 2.652,-2.652 5.113,-4.358 7.6,-5.234 1.883,-0.668 3.854,-1.008 5.896,-1.008 9.752,0 17.655,7.903 17.655,17.655 0,9.752 -7.903,17.655 -17.655,17.655 l -8.801,0 c -4.875,0 -8.828,3.952 -8.828,8.828 0,4.875 3.952,8.828 8.828,8.828 l 8.801,0 z"
         id="path4775"
         inkscape:connector-curvature="0" /><path
         style="fill:#d71e00"
         d="m 123.589,150.067 c 19.503,0 35.31,-15.808 35.31,-35.31 0,-19.502 -15.808,-35.31 -35.31,-35.31 l -8.828,0 c -4.875,0 -8.828,3.952 -8.828,8.828 0,4.875 3.952,8.828 8.828,8.828 l 8.828,0 c 9.752,0 17.655,7.903 17.655,17.655 0,9.752 -7.903,17.655 -17.655,17.655 -4.808,0 -9.446,-2.183 -13.47,-6.207 -3.447,-3.447 -9.037,-3.447 -12.484,0 -3.447,3.447 -3.447,9.037 0,12.484 7.15,7.15 16.133,11.377 25.954,11.377 z"
         id="path4777"
         inkscape:connector-curvature="0" /></g></g><g
     id="g4779" /><g
     id="g4781" /><g
     id="g4783" /><g
     id="g4785" /><g
     id="g4787" /><g
     id="g4789" /><g
     id="g4791" /><g
     id="g4793" /><g
     id="g4795" /><g
     id="g4797" /><g
     id="g4799" /><g
     id="g4801" /><g
     id="g4803" /><g
     id="g4805" /><g
     id="g4807" /></svg>