<?xml version="1.0" encoding="UTF-8" standalone="no"?>
<!-- Generator: Adobe Illustrator 19.0.0, SVG Export Plug-In . SVG Version: 6.00 Build 0)  -->

<svg
   xmlns:dc="http://purl.org/dc/elements/1.1/"
   xmlns:cc="http://creativecommons.org/ns#"
   xmlns:rdf="http://www.w3.org/1999/02/22-rdf-syntax-ns#"
   xmlns:svg="http://www.w3.org/2000/svg"
   xmlns="http://www.w3.org/2000/svg"
   xmlns:sodipodi="http://sodipodi.sourceforge.net/DTD/sodipodi-0.dtd"
   xmlns:inkscape="http://www.inkscape.org/namespaces/inkscape"
   version="1.1"
   id="Layer_1"
   x="0px"
   y="0px"
   viewBox="0 0 369 512"
   xml:space="preserve"
   inkscape:version="0.91 r13725"
   sodipodi:docname="karo-11.svg"
   width="369"
   height="512"><metadata
     id="metadata6582"><rdf:RDF><cc:Work
         rdf:about=""><dc:format>image/svg+xml</dc:format><dc:type
           rdf:resource="http://purl.org/dc/dcmitype/StillImage" /><dc:title></dc:title></cc:Work></rdf:RDF></metadata><defs
     id="defs6580" /><sodipodi:namedview
     pagecolor="#ffffff"
     bordercolor="#666666"
     borderopacity="1"
     objecttolerance="10"
     gridtolerance="10"
     guidetolerance="10"
     inkscape:pageopacity="0"
     inkscape:pageshadow="2"
     inkscape:window-width="640"
     inkscape:window-height="480"
     id="namedview6578"
     showgrid="false"
     inkscape:zoom="1.5410156"
     inkscape:cx="160.93283"
     inkscape:cy="256"
     inkscape:current-layer="Layer_1" /><g
     id="g6536"
     transform="translate(-70.621,0)"><path
       style="fill:#e6eef4"
       d="M 423.724,0 88.276,0 C 78.522,0 70.621,7.901 70.621,17.655 l 0,476.69 c 0,9.754 7.901,17.655 17.655,17.655 l 335.448,0 c 9.754,0 17.655,-7.901 17.655,-17.655 l 0,-476.69 C 441.379,7.901 433.479,0 423.724,0"
       id="path6538"
       inkscape:connector-curvature="0" /><g
       id="g6540"><polygon
         style="fill:#d71e00"
         points="256,176.552 150.069,308.966 256,441.379 361.931,308.966 "
         id="polygon6542" /><path
         style="fill:#d71e00"
         d="m 97.103,61.793 0,52.966 c 0,19.441 15.869,35.31 35.31,35.31 19.441,0 35.31,-15.869 35.31,-35.31 l 0,-52.966 c 0,-19.441 -15.869,-35.31 -35.31,-35.31 -19.441,0 -35.31,15.869 -35.31,35.31 z m 52.966,0 0,52.966 c 0,9.69 -7.965,17.655 -17.655,17.655 -9.69,0 -17.655,-7.965 -17.655,-17.655 l 0,-52.966 c 0,-9.69 7.965,-17.655 17.655,-17.655 9.69,0 17.655,7.965 17.655,17.655 z"
         id="path6544"
         inkscape:connector-curvature="0" /><path
         style="fill:#d71e00"
         d="m 162.428,148.303 c 3.9,2.925 9.433,2.135 12.359,-1.766 2.925,-3.9 2.135,-9.433 -1.766,-12.359 l -35.31,-26.483 c -3.9,-2.925 -9.433,-2.135 -12.359,1.766 -2.925,3.9 -2.135,9.433 1.766,12.359 l 35.31,26.483 z"
         id="path6546"
         inkscape:connector-curvature="0" /></g></g><g
     id="g6548" /><g
     id="g6550" /><g
     id="g6552" /><g
     id="g6554" /><g
     id="g6556" /><g
     id="g6558" /><g
     id="g6560" /><g
     id="g6562" /><g
     id="g6564" /><g
     id="g6566" /><g
     id="g6568" /><g
     id="g6570" /><g
     id="g6572" /><g
     id="g6574" /><g
     id="g6576" /></svg>