<?xml version="1.0" encoding="UTF-8" standalone="no"?>
<!-- Generator: Adobe Illustrator 19.0.0, SVG Export Plug-In . SVG Version: 6.00 Build 0)  -->

<svg
   xmlns:dc="http://purl.org/dc/elements/1.1/"
   xmlns:cc="http://creativecommons.org/ns#"
   xmlns:rdf="http://www.w3.org/1999/02/22-rdf-syntax-ns#"
   xmlns:svg="http://www.w3.org/2000/svg"
   xmlns="http://www.w3.org/2000/svg"
   xmlns:sodipodi="http://sodipodi.sourceforge.net/DTD/sodipodi-0.dtd"
   xmlns:inkscape="http://www.inkscape.org/namespaces/inkscape"
   version="1.1"
   id="Layer_1"
   x="0px"
   y="0px"
   viewBox="0 0 369 512"
   xml:space="preserve"
   inkscape:version="0.91 r13725"
   sodipodi:docname="karo-4.svg"
   width="369"
   height="512"><metadata
     id="metadata5997"><rdf:RDF><cc:Work
         rdf:about=""><dc:format>image/svg+xml</dc:format><dc:type
           rdf:resource="http://purl.org/dc/dcmitype/StillImage" /><dc:title></dc:title></cc:Work></rdf:RDF></metadata><defs
     id="defs5995" /><sodipodi:namedview
     pagecolor="#ffffff"
     bordercolor="#666666"
     borderopacity="1"
     objecttolerance="10"
     gridtolerance="10"
     guidetolerance="10"
     inkscape:pageopacity="0"
     inkscape:pageshadow="2"
     inkscape:window-width="640"
     inkscape:window-height="480"
     id="namedview5993"
     showgrid="false"
     inkscape:zoom="1.5410156"
     inkscape:cx="160.93283"
     inkscape:cy="256"
     inkscape:current-layer="Layer_1" /><g
     id="g5949"
     transform="translate(-70.621,0)"><path
       style="fill:#e6eef4"
       d="M 423.724,0 88.276,0 C 78.522,0 70.621,7.901 70.621,17.655 l 0,476.69 c 0,9.754 7.901,17.655 17.655,17.655 l 335.448,0 c 9.754,0 17.655,-7.901 17.655,-17.655 l 0,-476.69 C 441.379,7.901 433.479,0 423.724,0"
       id="path5951"
       inkscape:connector-curvature="0" /><g
       id="g5953"><polygon
         style="fill:#d71e00"
         points="256,176.552 150.069,308.966 256,441.379 361.931,308.966 "
         id="polygon5955" /><path
         style="fill:#d71e00"
         d="m 150.069,44.138 c 4.875,0 8.828,-3.952 8.828,-8.828 0,-4.876 -3.952,-8.828 -8.828,-8.828 l -44.138,0 c -4.875,0 -8.828,3.952 -8.828,8.828 0,4.876 3.952,8.828 8.828,8.828 l 44.138,0 z"
         id="path5957"
         inkscape:connector-curvature="0" /><path
         style="fill:#d71e00"
         d="m 97.103,79.448 c 0,4.875 3.952,8.828 8.828,8.828 4.875,0 8.828,-3.952 8.828,-8.828 l 0,-44.138 c 0,-4.875 -3.952,-8.828 -8.828,-8.828 -4.875,0 -8.828,3.952 -8.828,8.828 l 0,44.138 z"
         id="path5959"
         inkscape:connector-curvature="0" /><path
         style="fill:#d71e00"
         d="m 126.535,134.376 c 20.041,0 36.29,-16.249 36.29,-36.29 0,-20.041 -16.249,-36.29 -36.29,-36.29 -10.545,0 -20.385,4.533 -27.223,12.283 -3.226,3.656 -2.877,9.234 0.779,12.46 3.656,3.226 9.234,2.877 12.46,-0.779 3.519,-3.988 8.556,-6.308 13.984,-6.308 10.29,0 18.635,8.345 18.635,18.635 0,10.29 -8.345,18.635 -18.635,18.635 -5.428,0 -10.459,-2.322 -13.984,-6.317 -3.226,-3.656 -8.804,-4.004 -12.46,-0.779 -3.656,3.226 -4.004,8.804 -0.779,12.46 6.841,7.753 16.674,12.29 27.223,12.29 z"
         id="path5961"
         inkscape:connector-curvature="0" /></g></g><g
     id="g5963" /><g
     id="g5965" /><g
     id="g5967" /><g
     id="g5969" /><g
     id="g5971" /><g
     id="g5973" /><g
     id="g5975" /><g
     id="g5977" /><g
     id="g5979" /><g
     id="g5981" /><g
     id="g5983" /><g
     id="g5985" /><g
     id="g5987" /><g
     id="g5989" /><g
     id="g5991" /></svg>