<?xml version="1.0" encoding="UTF-8" standalone="no"?>
<!-- Generator: Adobe Illustrator 19.0.0, SVG Export Plug-In . SVG Version: 6.00 Build 0)  -->

<svg
   xmlns:dc="http://purl.org/dc/elements/1.1/"
   xmlns:cc="http://creativecommons.org/ns#"
   xmlns:rdf="http://www.w3.org/1999/02/22-rdf-syntax-ns#"
   xmlns:svg="http://www.w3.org/2000/svg"
   xmlns="http://www.w3.org/2000/svg"
   xmlns:sodipodi="http://sodipodi.sourceforge.net/DTD/sodipodi-0.dtd"
   xmlns:inkscape="http://www.inkscape.org/namespaces/inkscape"
   version="1.1"
   id="Layer_1"
   x="0px"
   y="0px"
   viewBox="0 0 369 512"
   xml:space="preserve"
   inkscape:version="0.91 r13725"
   sodipodi:docname="kier-1.svg"
   width="369"
   height="512"><metadata
     id="metadata4815"><rdf:RDF><cc:Work
         rdf:about=""><dc:format>image/svg+xml</dc:format><dc:type
           rdf:resource="http://purl.org/dc/dcmitype/StillImage" /><dc:title></dc:title></cc:Work></rdf:RDF></metadata><defs
     id="defs4813" /><sodipodi:namedview
     pagecolor="#ffffff"
     bordercolor="#666666"
     borderopacity="1"
     objecttolerance="10"
     gridtolerance="10"
     guidetolerance="10"
     inkscape:pageopacity="0"
     inkscape:pageshadow="2"
     inkscape:window-width="640"
     inkscape:window-height="480"
     id="namedview4811"
     showgrid="false"
     inkscape:zoom="1.5410156"
     inkscape:cx="160.93283"
     inkscape:cy="256"
     inkscape:current-layer="Layer_1" /><g
     id="g4769"
     transform="translate(-70.621,0)"><path
       style="fill:#e6eef4"
       d="M 423.724,0 88.276,0 C 78.522,0 70.621,7.901 70.621,17.655 l 0,476.69 c 0,9.754 7.901,17.655 17.655,17.655 l 335.448,0 c 9.754,0 17.655,-7.901 17.655,-17.655 l 0,-476.69 C 441.379,7.901 433.479,0 423.724,0"
       id="path4771"
       inkscape:connector-curvature="0" /><g
       id="g4773"><path
         style="fill:#d71e00"
         d="m 256,238.345 c 9.507,-24.214 29.625,-44.138 54.881,-44.138 21.257,0 40.201,9.993 52.966,26.483 16.013,20.692 27.33,66.754 -7.715,101.8 C 338.353,340.268 256,423.724 256,423.724 c 0,0 -82.353,-83.456 -100.131,-101.235 -35.046,-35.046 -23.729,-81.108 -7.715,-101.8 12.765,-16.49 31.709,-26.483 52.966,-26.483 25.255,0.001 45.373,19.925 54.88,44.139"
         id="path4775"
         inkscape:connector-curvature="0" /><path
         style="fill:#d71e00"
         d="m 150.069,141.241 8.828,-8.828 -52.966,0 c -4.875,0 -8.828,3.952 -8.828,8.828 0,4.876 3.952,8.828 8.828,8.828 l 52.966,0 c 4.875,0 8.828,-3.952 8.828,-8.828 l 0,-8.828 c 0,-4.875 -3.952,-8.828 -8.828,-8.828 -4.876,0 -8.828,3.952 -8.828,8.828 l 0,8.828 z"
         id="path4777"
         inkscape:connector-curvature="0" /><path
         style="fill:#d71e00"
         d="m 155.813,81.484 2.335,-2.758 0.608,-0.807 C 172.982,56.58 158.642,26.909 133.002,26.485 l -0.588,-10e-4 c -19.503,0 -35.31,15.808 -35.31,35.31 0,4.875 3.952,8.828 8.828,8.828 4.875,0 8.828,-3.952 8.828,-8.828 0,-9.752 7.903,-17.655 17.655,-17.655 l 0.441,0 c 11.188,0.187 17.866,14.003 11.211,23.987 l 7.345,4.897 -6.737,-5.704 -2.339,2.763 c -17.382,20.563 -32.248,43.121 -44.298,67.212 -2.181,4.36 -0.414,9.663 3.946,11.844 4.36,2.181 9.663,0.414 11.844,-3.946 11.421,-22.839 25.513,-44.222 41.985,-63.708 z"
         id="path4779"
         inkscape:connector-curvature="0" /></g></g><g
     id="g4781" /><g
     id="g4783" /><g
     id="g4785" /><g
     id="g4787" /><g
     id="g4789" /><g
     id="g4791" /><g
     id="g4793" /><g
     id="g4795" /><g
     id="g4797" /><g
     id="g4799" /><g
     id="g4801" /><g
     id="g4803" /><g
     id="g4805" /><g
     id="g4807" /><g
     id="g4809" /></svg>