<?xml version="1.0" encoding="UTF-8" standalone="no"?>
<!-- Generator: Adobe Illustrator 19.0.0, SVG Export Plug-In . SVG Version: 6.00 Build 0)  -->

<svg
   xmlns:dc="http://purl.org/dc/elements/1.1/"
   xmlns:cc="http://creativecommons.org/ns#"
   xmlns:rdf="http://www.w3.org/1999/02/22-rdf-syntax-ns#"
   xmlns:svg="http://www.w3.org/2000/svg"
   xmlns="http://www.w3.org/2000/svg"
   xmlns:sodipodi="http://sodipodi.sourceforge.net/DTD/sodipodi-0.dtd"
   xmlns:inkscape="http://www.inkscape.org/namespaces/inkscape"
   version="1.1"
   id="Layer_1"
   x="0px"
   y="0px"
   viewBox="0 0 369 512"
   xml:space="preserve"
   inkscape:version="0.91 r13725"
   sodipodi:docname="kier-12.svg"
   width="369"
   height="512"><metadata
     id="metadata4226"><rdf:RDF><cc:Work
         rdf:about=""><dc:format>image/svg+xml</dc:format><dc:type
           rdf:resource="http://purl.org/dc/dcmitype/StillImage" /><dc:title></dc:title></cc:Work></rdf:RDF></metadata><defs
     id="defs4224" /><sodipodi:namedview
     pagecolor="#ffffff"
     bordercolor="#666666"
     borderopacity="1"
     objecttolerance="10"
     gridtolerance="10"
     guidetolerance="10"
     inkscape:pageopacity="0"
     inkscape:pageshadow="2"
     inkscape:window-width="640"
     inkscape:window-height="480"
     id="namedview4222"
     showgrid="false"
     inkscape:zoom="1.5410156"
     inkscape:cx="160.93283"
     inkscape:cy="256"
     inkscape:current-layer="Layer_1" /><g
     id="g4178"
     transform="translate(-70.621,0)"><path
       style="fill:#e6eef4"
       d="M 423.724,0 88.276,0 C 78.522,0 70.621,7.901 70.621,17.655 l 0,476.69 c 0,9.754 7.901,17.655 17.655,17.655 l 335.448,0 c 9.754,0 17.655,-7.901 17.655,-17.655 l 0,-476.69 C 441.379,7.901 433.479,0 423.724,0"
       id="path4180"
       inkscape:connector-curvature="0" /><g
       id="g4182"><path
         style="fill:#d71e00"
         d="m 256,238.345 c 9.507,-24.214 29.625,-44.138 54.881,-44.138 21.257,0 40.201,9.993 52.966,26.483 16.013,20.692 27.33,66.754 -7.715,101.8 C 338.353,340.268 256,423.724 256,423.724 c 0,0 -82.353,-83.456 -100.131,-101.235 -35.046,-35.046 -23.729,-81.108 -7.715,-101.8 12.765,-16.49 31.709,-26.483 52.966,-26.483 25.255,0.001 45.373,19.925 54.88,44.139"
         id="path4184"
         inkscape:connector-curvature="0" /><path
         style="fill:#d71e00"
         d="m 97.103,141.241 c 0,4.875 3.952,8.828 8.828,8.828 4.875,0 8.828,-3.952 8.828,-8.828 l 0,-105.931 c 0,-4.875 -3.952,-8.828 -8.828,-8.828 -4.875,0 -8.828,3.952 -8.828,8.828 l 0,105.931 z"
         id="path4186"
         inkscape:connector-curvature="0" /><path
         style="fill:#d71e00"
         d="m 165.599,41.055 c 3.173,-3.702 2.744,-9.274 -0.957,-12.447 -3.701,-3.173 -9.274,-2.744 -12.447,0.957 L 99.229,91.359 c -3.173,3.702 -2.744,9.274 0.957,12.447 3.702,3.173 9.274,2.744 12.447,-0.957 l 52.966,-61.794 z"
         id="path4188"
         inkscape:connector-curvature="0" /><path
         style="fill:#d71e00"
         d="m 130.77,74.317 c -2.834,-3.967 -8.347,-4.886 -12.314,-2.052 -3.967,2.834 -4.886,8.347 -2.052,12.314 l 44.138,61.793 c 2.834,3.967 8.347,4.886 12.314,2.052 3.967,-2.834 4.886,-8.347 2.052,-12.314 L 130.77,74.317 Z"
         id="path4190"
         inkscape:connector-curvature="0" /></g></g><g
     id="g4192" /><g
     id="g4194" /><g
     id="g4196" /><g
     id="g4198" /><g
     id="g4200" /><g
     id="g4202" /><g
     id="g4204" /><g
     id="g4206" /><g
     id="g4208" /><g
     id="g4210" /><g
     id="g4212" /><g
     id="g4214" /><g
     id="g4216" /><g
     id="g4218" /><g
     id="g4220" /></svg>