<?xml version="1.0" encoding="UTF-8" standalone="no"?>
<!-- Generator: Adobe Illustrator 19.0.0, SVG Export Plug-In . SVG Version: 6.00 Build 0)  -->

<svg
   xmlns:dc="http://purl.org/dc/elements/1.1/"
   xmlns:cc="http://creativecommons.org/ns#"
   xmlns:rdf="http://www.w3.org/1999/02/22-rdf-syntax-ns#"
   xmlns:svg="http://www.w3.org/2000/svg"
   xmlns="http://www.w3.org/2000/svg"
   xmlns:sodipodi="http://sodipodi.sourceforge.net/DTD/sodipodi-0.dtd"
   xmlns:inkscape="http://www.inkscape.org/namespaces/inkscape"
   version="1.1"
   id="Layer_1"
   x="0px"
   y="0px"
   viewBox="0 0 369 512"
   xml:space="preserve"
   inkscape:version="0.91 r13725"
   sodipodi:docname="pik-12.svg"
   width="369"
   height="512"><metadata
     id="metadata4815"><rdf:RDF><cc:Work
         rdf:about=""><dc:format>image/svg+xml</dc:format><dc:type
           rdf:resource="http://purl.org/dc/dcmitype/StillImage" /><dc:title></dc:title></cc:Work></rdf:RDF></metadata><defs
     id="defs4813" /><sodipodi:namedview
     pagecolor="#ffffff"
     bordercolor="#666666"
     borderopacity="1"
     objecttolerance="10"
     gridtolerance="10"
     guidetolerance="10"
     inkscape:pageopacity="0"
     inkscape:pageshadow="2"
     inkscape:window-width="640"
     inkscape:window-height="480"
     id="namedview4811"
     showgrid="false"
     inkscape:zoom="1.5410156"
     inkscape:cx="160.93283"
     inkscape:cy="256"
     inkscape:current-layer="Layer_1" /><g
     id="g4767"
     transform="translate(-70.621,0)"><path
       style="fill:#e6eef4"
       d="M 423.724,0 88.276,0 C 78.522,0 70.621,7.901 70.621,17.655 l 0,476.69 c 0,9.754 7.901,17.655 17.655,17.655 l 335.448,0 c 9.754,0 17.655,-7.901 17.655,-17.655 l 0,-476.69 C 441.379,7.901 433.479,0 423.724,0"
       id="path4769"
       inkscape:connector-curvature="0" /><g
       id="g4771"><path
         d="m 282.483,361.931 0,0 c 0,0 44.323,44.323 79.448,-8.828 18.282,-27.666 5.888,-54.616 -13.603,-73.242 l -83.906,-82.635 c -4.723,-4.025 -11.979,-4.025 -16.711,0 l -85.124,82.635 c -16.746,17.523 -31.011,45.506 -12.518,73.242 35.31,52.966 79.448,8.828 79.448,8.828 0,22.625 -6.444,51.703 -8.324,59.683 -0.256,1.112 0.6,2.11 1.739,2.11 l 66.145,0 c 1.139,0 1.986,-0.997 1.73,-2.101 -1.871,-8.006 -8.324,-37.208 -8.324,-59.692"
         id="path4773"
         inkscape:connector-curvature="0" /><path
         d="m 97.103,141.241 c 0,4.875 3.952,8.828 8.828,8.828 4.875,0 8.828,-3.952 8.828,-8.828 l 0,-105.931 c 0,-4.875 -3.952,-8.828 -8.828,-8.828 -4.875,0 -8.828,3.952 -8.828,8.828 l 0,105.931 z"
         id="path4775"
         inkscape:connector-curvature="0" /><path
         d="m 165.599,41.055 c 3.173,-3.702 2.744,-9.274 -0.957,-12.447 -3.701,-3.173 -9.274,-2.744 -12.447,0.957 L 99.229,91.359 c -3.173,3.702 -2.744,9.274 0.957,12.447 3.702,3.173 9.274,2.744 12.447,-0.957 l 52.966,-61.794 z"
         id="path4777"
         inkscape:connector-curvature="0" /><path
         d="m 130.77,74.317 c -2.834,-3.967 -8.347,-4.886 -12.314,-2.052 -3.967,2.834 -4.886,8.347 -2.052,12.314 l 44.138,61.793 c 2.834,3.967 8.347,4.886 12.314,2.052 3.967,-2.834 4.886,-8.347 2.052,-12.314 L 130.77,74.317 Z"
         id="path4779"
         inkscape:connector-curvature="0" /></g></g><g
     id="g4781" /><g
     id="g4783" /><g
     id="g4785" /><g
     id="g4787" /><g
     id="g4789" /><g
     id="g4791" /><g
     id="g4793" /><g
     id="g4795" /><g
     id="g4797" /><g
     id="g4799" /><g
     id="g4801" /><g
     id="g4803" /><g
     id="g4805" /><g
     id="g4807" /><g
     id="g4809" /></svg>