<?xml version="1.0" encoding="UTF-8" standalone="no"?>
<!-- Generator: Adobe Illustrator 19.0.0, SVG Export Plug-In . SVG Version: 6.00 Build 0)  -->

<svg
   xmlns:dc="http://purl.org/dc/elements/1.1/"
   xmlns:cc="http://creativecommons.org/ns#"
   xmlns:rdf="http://www.w3.org/1999/02/22-rdf-syntax-ns#"
   xmlns:svg="http://www.w3.org/2000/svg"
   xmlns="http://www.w3.org/2000/svg"
   xmlns:sodipodi="http://sodipodi.sourceforge.net/DTD/sodipodi-0.dtd"
   xmlns:inkscape="http://www.inkscape.org/namespaces/inkscape"
   version="1.1"
   id="Layer_1"
   x="0px"
   y="0px"
   viewBox="0 0 369 512"
   xml:space="preserve"
   inkscape:version="0.91 r13725"
   sodipodi:docname="pik-1.svg"
   width="369"
   height="512"><metadata
     id="metadata5404"><rdf:RDF><cc:Work
         rdf:about=""><dc:format>image/svg+xml</dc:format><dc:type
           rdf:resource="http://purl.org/dc/dcmitype/StillImage" /><dc:title></dc:title></cc:Work></rdf:RDF></metadata><defs
     id="defs5402" /><sodipodi:namedview
     pagecolor="#ffffff"
     bordercolor="#666666"
     borderopacity="1"
     objecttolerance="10"
     gridtolerance="10"
     guidetolerance="10"
     inkscape:pageopacity="0"
     inkscape:pageshadow="2"
     inkscape:window-width="640"
     inkscape:window-height="480"
     id="namedview5400"
     showgrid="false"
     inkscape:zoom="1.5410156"
     inkscape:cx="160.93283"
     inkscape:cy="256"
     inkscape:current-layer="Layer_1" /><g
     id="g5358"
     transform="translate(-70.621,0)"><path
       style="fill:#e6eef4"
       d="M 423.724,0 88.276,0 C 78.522,0 70.621,7.901 70.621,17.655 l 0,476.69 c 0,9.754 7.901,17.655 17.655,17.655 l 335.448,0 c 9.754,0 17.655,-7.901 17.655,-17.655 l 0,-476.69 C 441.379,7.901 433.479,0 423.724,0"
       id="path5360"
       inkscape:connector-curvature="0" /><g
       id="g5362"><path
         d="m 282.483,361.931 0,0 c 0,0 44.323,44.323 79.448,-8.828 18.282,-27.666 5.888,-54.616 -13.603,-73.242 l -83.906,-82.635 c -4.723,-4.025 -11.979,-4.025 -16.711,0 l -85.124,82.635 c -16.746,17.523 -31.011,45.506 -12.518,73.242 35.31,52.966 79.448,8.828 79.448,8.828 l 0,0 c 0,22.625 -6.444,51.703 -8.324,59.683 -0.256,1.112 0.6,2.11 1.739,2.11 l 66.145,0 c 1.139,0 1.986,-0.997 1.73,-2.101 -1.871,-8.006 -8.324,-37.208 -8.324,-59.692"
         id="path5364"
         inkscape:connector-curvature="0" /><path
         d="m 150.069,141.241 8.828,-8.828 -52.966,0 c -4.875,0 -8.828,3.952 -8.828,8.828 0,4.876 3.952,8.828 8.828,8.828 l 52.966,0 c 4.875,0 8.828,-3.952 8.828,-8.828 l 0,-8.828 c 0,-4.875 -3.952,-8.828 -8.828,-8.828 -4.876,0 -8.828,3.952 -8.828,8.828 l 0,8.828 z"
         id="path5366"
         inkscape:connector-curvature="0" /><path
         d="m 155.813,81.484 2.335,-2.758 0.608,-0.807 C 172.982,56.58 158.642,26.909 133.002,26.485 l -0.588,-10e-4 c -19.503,0 -35.31,15.808 -35.31,35.31 0,4.875 3.952,8.828 8.828,8.828 4.875,0 8.828,-3.952 8.828,-8.828 0,-9.752 7.903,-17.655 17.655,-17.655 l 0.441,0 c 11.188,0.187 17.866,14.003 11.211,23.987 l 7.345,4.897 -6.737,-5.704 -2.339,2.763 c -17.382,20.563 -32.248,43.121 -44.298,67.212 -2.181,4.36 -0.414,9.663 3.946,11.844 4.36,2.181 9.663,0.414 11.844,-3.946 11.421,-22.839 25.513,-44.222 41.985,-63.708 z"
         id="path5368"
         inkscape:connector-curvature="0" /></g></g><g
     id="g5370" /><g
     id="g5372" /><g
     id="g5374" /><g
     id="g5376" /><g
     id="g5378" /><g
     id="g5380" /><g
     id="g5382" /><g
     id="g5384" /><g
     id="g5386" /><g
     id="g5388" /><g
     id="g5390" /><g
     id="g5392" /><g
     id="g5394" /><g
     id="g5396" /><g
     id="g5398" /></svg>