<?xml version="1.0" encoding="UTF-8" standalone="no"?>
<!-- Generator: Adobe Illustrator 19.0.0, SVG Export Plug-In . SVG Version: 6.00 Build 0)  -->

<svg
   xmlns:dc="http://purl.org/dc/elements/1.1/"
   xmlns:cc="http://creativecommons.org/ns#"
   xmlns:rdf="http://www.w3.org/1999/02/22-rdf-syntax-ns#"
   xmlns:svg="http://www.w3.org/2000/svg"
   xmlns="http://www.w3.org/2000/svg"
   xmlns:sodipodi="http://sodipodi.sourceforge.net/DTD/sodipodi-0.dtd"
   xmlns:inkscape="http://www.inkscape.org/namespaces/inkscape"
   version="1.1"
   id="Layer_1"
   x="0px"
   y="0px"
   viewBox="0 0 369 512"
   xml:space="preserve"
   inkscape:version="0.91 r13725"
   sodipodi:docname="pik-8.svg"
   width="369"
   height="512"><metadata
     id="metadata5995"><rdf:RDF><cc:Work
         rdf:about=""><dc:format>image/svg+xml</dc:format><dc:type
           rdf:resource="http://purl.org/dc/dcmitype/StillImage" /><dc:title></dc:title></cc:Work></rdf:RDF></metadata><defs
     id="defs5993" /><sodipodi:namedview
     pagecolor="#ffffff"
     bordercolor="#666666"
     borderopacity="1"
     objecttolerance="10"
     gridtolerance="10"
     guidetolerance="10"
     inkscape:pageopacity="0"
     inkscape:pageshadow="2"
     inkscape:window-width="640"
     inkscape:window-height="480"
     id="namedview5991"
     showgrid="false"
     inkscape:zoom="1.5410156"
     inkscape:cx="160.93283"
     inkscape:cy="256"
     inkscape:current-layer="Layer_1" /><g
     id="g5949"
     transform="translate(-70.621,0)"><path
       style="fill:#e6eef4"
       d="M 423.724,0 88.276,0 C 78.522,0 70.621,7.901 70.621,17.655 l 0,476.69 c 0,9.754 7.901,17.655 17.655,17.655 l 335.448,0 c 9.754,0 17.655,-7.901 17.655,-17.655 l 0,-476.69 C 441.379,7.901 433.479,0 423.724,0"
       id="path5951"
       inkscape:connector-curvature="0" /><g
       id="g5953"><path
         d="m 282.483,361.931 0,0 c 0,0 44.323,44.323 79.448,-8.828 18.282,-27.666 5.888,-54.616 -13.603,-73.242 l -83.906,-82.635 c -4.723,-4.025 -11.979,-4.025 -16.711,0 l -85.124,82.635 c -16.746,17.523 -31.011,45.506 -12.518,73.242 35.31,52.966 79.448,8.828 79.448,8.828 0,22.625 -6.444,51.703 -8.324,59.683 -0.256,1.112 0.6,2.11 1.739,2.11 l 66.145,0 c 1.139,0 1.986,-0.997 1.73,-2.101 -1.871,-8.006 -8.324,-37.208 -8.324,-59.692"
         id="path5955"
         inkscape:connector-curvature="0" /><path
         d="m 132.417,150.068 c 19.441,0 35.31,-15.869 35.31,-35.31 l 0,-52.966 c 0,-4.875 -3.952,-8.828 -8.828,-8.828 -4.875,0 -8.828,3.952 -8.828,8.828 l 0,52.966 c 0,9.69 -7.965,17.655 -17.655,17.655 -7.484,0 -14.148,-4.792 -16.643,-11.772 -1.641,-4.591 -6.693,-6.982 -11.284,-5.341 -4.591,1.641 -6.982,6.693 -5.341,11.284 4.985,13.941 18.257,23.484 33.269,23.484 z"
         id="path5957"
         inkscape:connector-curvature="0" /><path
         d="m 132.414,26.483 c -19.503,0 -35.31,15.808 -35.31,35.31 0,19.502 15.808,35.31 35.31,35.31 19.502,0 35.31,-15.808 35.31,-35.31 0,-19.502 -15.808,-35.31 -35.31,-35.31 z m 0,52.965 c -9.752,0 -17.655,-7.903 -17.655,-17.655 0,-9.752 7.903,-17.655 17.655,-17.655 9.752,0 17.655,7.903 17.655,17.655 0,9.752 -7.903,17.655 -17.655,17.655 z"
         id="path5959"
         inkscape:connector-curvature="0" /></g></g><g
     id="g5961" /><g
     id="g5963" /><g
     id="g5965" /><g
     id="g5967" /><g
     id="g5969" /><g
     id="g5971" /><g
     id="g5973" /><g
     id="g5975" /><g
     id="g5977" /><g
     id="g5979" /><g
     id="g5981" /><g
     id="g5983" /><g
     id="g5985" /><g
     id="g5987" /><g
     id="g5989" /></svg>