<?xml version="1.0" encoding="UTF-8" standalone="no"?>
<!-- Generator: Adobe Illustrator 19.0.0, SVG Export Plug-In . SVG Version: 6.00 Build 0)  -->

<svg
   xmlns:dc="http://purl.org/dc/elements/1.1/"
   xmlns:cc="http://creativecommons.org/ns#"
   xmlns:rdf="http://www.w3.org/1999/02/22-rdf-syntax-ns#"
   xmlns:svg="http://www.w3.org/2000/svg"
   xmlns="http://www.w3.org/2000/svg"
   xmlns:sodipodi="http://sodipodi.sourceforge.net/DTD/sodipodi-0.dtd"
   xmlns:inkscape="http://www.inkscape.org/namespaces/inkscape"
   version="1.1"
   id="Layer_1"
   x="0px"
   y="0px"
   viewBox="0 0 371 514"
   xml:space="preserve"
   inkscape:version="0.91 r13725"
   sodipodi:docname="revers.svg"
   width="371"
   height="514"><metadata
     id="metadata45"><rdf:RDF><cc:Work
         rdf:about=""><dc:format>image/svg+xml</dc:format><dc:type
           rdf:resource="http://purl.org/dc/dcmitype/StillImage" /><dc:title></dc:title></cc:Work></rdf:RDF></metadata><defs
     id="defs43" /><sodipodi:namedview
     pagecolor="#ffffff"
     bordercolor="#666666"
     borderopacity="1"
     objecttolerance="10"
     gridtolerance="10"
     guidetolerance="10"
     inkscape:pageopacity="0"
     inkscape:pageshadow="2"
     inkscape:window-width="640"
     inkscape:window-height="480"
     id="namedview41"
     showgrid="false"
     inkscape:zoom="1.5332031"
     inkscape:cx="47.612739"
     inkscape:cy="245.7102"
     inkscape:current-layer="Layer_1" /><path
     style="fill:#cccccc;stroke:#000000;stroke-opacity:1"
     d="m 335.58538,0.9995 -300.172916,0 c -19.202278,0 -34.768824,14.523 -34.768824,32.439 l 0,447.123 c 0,17.915 15.566546,32.439 34.769896,32.439 l 300.172924,0 c 19.20335,0 34.7699,-14.523 34.7699,-32.439 l 0,-447.123 c -0.002,-17.916 -15.5687,-32.439 -34.77098,-32.439 z"
     id="path3"
     inkscape:connector-curvature="0" /><path
     style="fill:#515262"
     d="m 308.76452,35.757 -246.530116,0 C 48.85597,35.757 38.01056,45.882 38.01056,58.374 l 0,397.252 c 0,12.491 10.84541,22.617 24.223844,22.617 l 246.531196,0 c 13.37843,0 24.22384,-10.125 24.22384,-22.617 l 0,-397.253 c -0.002,-12.491 -10.84755,-22.616 -24.22492,-22.616 z"
     id="path5"
     inkscape:connector-curvature="0" /><path
     style="fill:#cccccc"
     d="m 185.49979,346.04193 c 171.389,-100.869 81.677,-212.897 0,-167.818 -81.677,-45.078 -171.388008,66.948 0,167.818 z"
     id="path7"
     inkscape:connector-curvature="0" /><path
     style="opacity:0.1;enable-background:new"
     d="m 69.516,479.561 0,-447.122 C 69.516,14.523 84.038998,0 101.954,0 L 32.438,0 C 14.523,0 0,14.523 0,32.439 l 0,447.123 c 0,17.915 14.523,32.439 32.439,32.439 l 69.516,0 C 84.038998,512 69.516,497.477 69.516,479.561 Z"
     id="path9"
     inkscape:connector-curvature="0" /><g
     id="g11"
     transform="translate(0,2)" /><g
     id="g13"
     transform="translate(0,2)" /><g
     id="g15"
     transform="translate(0,2)" /><g
     id="g17"
     transform="translate(0,2)" /><g
     id="g19"
     transform="translate(0,2)" /><g
     id="g21"
     transform="translate(0,2)" /><g
     id="g23"
     transform="translate(0,2)" /><g
     id="g25"
     transform="translate(0,2)" /><g
     id="g27"
     transform="translate(0,2)" /><g
     id="g29"
     transform="translate(0,2)" /><g
     id="g31"
     transform="translate(0,2)" /><g
     id="g33"
     transform="translate(0,2)" /><g
     id="g35"
     transform="translate(0,2)" /><g
     id="g37"
     transform="translate(0,2)" /><g
     id="g39"
     transform="translate(0,2)" /></svg>