<?xml version="1.0" encoding="UTF-8" standalone="no"?>
<!-- Generator: Adobe Illustrator 19.0.0, SVG Export Plug-In . SVG Version: 6.00 Build 0)  -->

<svg
   xmlns:dc="http://purl.org/dc/elements/1.1/"
   xmlns:cc="http://creativecommons.org/ns#"
   xmlns:rdf="http://www.w3.org/1999/02/22-rdf-syntax-ns#"
   xmlns:svg="http://www.w3.org/2000/svg"
   xmlns="http://www.w3.org/2000/svg"
   xmlns:sodipodi="http://sodipodi.sourceforge.net/DTD/sodipodi-0.dtd"
   xmlns:inkscape="http://www.inkscape.org/namespaces/inkscape"
   version="1.1"
   id="Layer_1"
   x="0px"
   y="0px"
   viewBox="0 0 369 512"
   xml:space="preserve"
   inkscape:version="0.91 r13725"
   sodipodi:docname="trefl-5.svg"
   width="369"
   height="512"><metadata
     id="metadata4819"><rdf:RDF><cc:Work
         rdf:about=""><dc:format>image/svg+xml</dc:format><dc:type
           rdf:resource="http://purl.org/dc/dcmitype/StillImage" /><dc:title></dc:title></cc:Work></rdf:RDF></metadata><defs
     id="defs4817" /><sodipodi:namedview
     pagecolor="#ffffff"
     bordercolor="#666666"
     borderopacity="1"
     objecttolerance="10"
     gridtolerance="10"
     guidetolerance="10"
     inkscape:pageopacity="0"
     inkscape:pageshadow="2"
     inkscape:window-width="640"
     inkscape:window-height="480"
     id="namedview4815"
     showgrid="false"
     inkscape:zoom="1.5410156"
     inkscape:cx="160.93283"
     inkscape:cy="256"
     inkscape:current-layer="Layer_1" /><g
     id="g4773"
     transform="translate(-70.621,0)"><path
       style="fill:#e6eef4"
       d="M 423.724,0 88.276,0 C 78.522,0 70.621,7.901 70.621,17.655 l 0,476.69 c 0,9.754 7.901,17.655 17.655,17.655 l 335.448,0 c 9.754,0 17.655,-7.901 17.655,-17.655 l 0,-476.69 C 441.379,7.901 433.479,0 423.724,0"
       id="path4775"
       inkscape:connector-curvature="0" /><g
       id="g4777"><path
         d="m 282.483,370.759 c 0,21.91 6.038,43.82 8.13,50.732 0.344,1.139 -0.521,2.233 -1.704,2.233 l -65.827,0 c -1.183,0 -2.039,-1.095 -1.704,-2.225 2.074,-6.947 8.139,-29.096 8.139,-50.741 -8.722,6.321 -18.803,9.578 -29.917,9.578 -32.274,0 -60.275,-27.101 -58.253,-59.78 1.13,-18.379 12.835,-34.145 28.425,-43.926 15.651,-9.825 30.164,-10.611 43.14,-7.459 -8.298,-9.825 -13.312,-22.502 -13.312,-36.361 0,-34.834 31.576,-62.296 67.663,-55.314 22.59,4.361 40.536,22.925 44.332,45.612 2.948,17.602 -2.304,33.986 -12.5,46.062 13.065,-3.169 27.692,-2.348 43.467,7.662 15.519,9.852 27.18,25.582 28.248,43.926 1.889,32.591 -26.2,59.577 -58.403,59.577 -10.963,0.002 -21.361,-3.388 -29.924,-9.576"
         id="path4779"
         inkscape:connector-curvature="0" /><path
         d="m 132.414,141.241 c 19.503,0 35.31,-15.808 35.31,-35.31 0,-19.502 -15.808,-35.31 -35.31,-35.31 -19.502,0 -35.31,15.808 -35.31,35.31 0,19.502 15.807,35.31 35.31,35.31 z m 0,-52.965 c 9.752,0 17.655,7.903 17.655,17.655 0,9.752 -7.903,17.655 -17.655,17.655 -9.752,0 -17.655,-7.903 -17.655,-17.655 0,-9.752 7.903,-17.655 17.655,-17.655 z"
         id="path4781"
         inkscape:connector-curvature="0" /><path
         d="m 158.897,44.138 c 4.875,0 8.828,-3.952 8.828,-8.828 0,-4.876 -3.952,-8.828 -8.828,-8.828 -36.002,0 -61.793,32.744 -61.793,79.448 0,4.875 3.952,8.828 8.828,8.828 4.875,0 8.828,-3.952 8.828,-8.828 -0.001,-37.752 18.934,-61.792 44.137,-61.792 z"
         id="path4783"
         inkscape:connector-curvature="0" /></g></g><g
     id="g4785" /><g
     id="g4787" /><g
     id="g4789" /><g
     id="g4791" /><g
     id="g4793" /><g
     id="g4795" /><g
     id="g4797" /><g
     id="g4799" /><g
     id="g4801" /><g
     id="g4803" /><g
     id="g4805" /><g
     id="g4807" /><g
     id="g4809" /><g
     id="g4811" /><g
     id="g4813" /></svg>